<?xml version="1.0" encoding="utf-8"?>
<!-- Generator: Adobe Illustrator 18.1.0, SVG Export Plug-In . SVG Version: 6.00 Build 0)  -->
<!DOCTYPE svg PUBLIC "-//W3C//DTD SVG 1.1//EN" "http://www.w3.org/Graphics/SVG/1.1/DTD/svg11.dtd">
<svg version="1.1" id="Layer_1" xmlns="http://www.w3.org/2000/svg" xmlns:xlink="http://www.w3.org/1999/xlink" x="0px" y="0px"
	 viewBox="0 0 200 200" enable-background="new 0 0 200 200" xml:space="preserve">
<path fill="none" stroke="#FFFFFF" stroke-width="2" stroke-miterlimit="10" d="M133.6,59.3v68.6H17.9c-1.2,0-2.1-1-2.1-2.1V46.5
	c0-1.2,1-2.1,2.1-2.1h36.9c0.6,0,1.1,0.2,1.5,0.6l14,13.8c0.4,0.4,0.9,0.6,1.5,0.6H133.6z"/>
<path fill="none" stroke="#FFFFFF" stroke-width="2" stroke-miterlimit="10" d="M30.7,44.3v-15c0-1.2,1-2.1,2.1-2.1h36.9
	c0.6,0,1.1,0.2,1.5,0.6l14,13.8c0.4,0.4,0.9,0.6,1.5,0.6h59.7c1.2,0,2.1,1,2.1,2.1v66.4h-10.7"/>
<g>
	<path fill="#FFFFFF" d="M155.5,172.8C155.5,172.8,155.5,172.8,155.5,172.8c-2.2,0-4.5-0.1-6.7-0.2c-2.1-0.1-4.2-0.2-6.2-0.2h-32.3
		c-2.1,0-4.2,0.1-6.5,0.1c-2.3,0.1-4.8,0.1-7.2,0.1c-23.4,0-30-8.2-33.4-16.2c-2.9-6.8-2.6-14.7,0.8-21.7c3.1-6.4,8.6-11.2,15-13.4
		c-0.9-5.6,0.6-11.3,4.3-15.9c4.1-5.2,10.5-8.4,17.1-8.4c1.5,0,3,0.2,4.5,0.5c6.3-9.2,17.2-14.9,28.8-14.9c4.7,0,9.2,0.9,13.5,2.7
		c14.4,6.2,22.8,20.7,20.6,35.6c5.5,1.7,10.5,5.3,13.9,10c4.5,6.3,5.8,14.2,3.7,21.8c-2.2,7.8-7.6,14.1-14.9,17.2
		C165.5,172.6,159.8,172.8,155.5,172.8z"/>
</g>
</svg>
