<?xml version="1.0" encoding="utf-8"?>
<!-- Generator: Adobe Illustrator 18.1.0, SVG Export Plug-In . SVG Version: 6.00 Build 0)  -->
<!DOCTYPE svg PUBLIC "-//W3C//DTD SVG 1.1//EN" "http://www.w3.org/Graphics/SVG/1.1/DTD/svg11.dtd">
<svg version="1.1" id="Layer_1" xmlns="http://www.w3.org/2000/svg" xmlns:xlink="http://www.w3.org/1999/xlink" x="0px" y="0px"
	 viewBox="0 0 200 200" enable-background="new 0 0 200 200" xml:space="preserve">
<g>
	<path fill="none" stroke="#FFFFFF" stroke-width="2" stroke-miterlimit="10" d="M54.5,49.1h107.3c1.2,0,2.2,1.1,2.2,2.4v70.2
		c0,1.3-1,2.4-2.2,2.4H54.5c-1.2,0-2.2-1.1-2.2-2.4V51.5C52.3,50.2,53.3,49.1,54.5,49.1z"/>
	<path fill="none" stroke="#FFFFFF" stroke-width="2" stroke-miterlimit="10" d="M71.4,48.1V30.4c0-1.3,1-2.4,2.2-2.4h109.7
		c1.2,0,2.2,1.1,2.2,2.4v70.2c0,1.3-1,2.4-2.2,2.4h-19.4"/>
	<path fill="none" stroke="#FFFFFF" stroke-width="2" stroke-miterlimit="10" d="M52,50.3l55,50.4c0.7,0.4,1.5,0.4,2.2,0L164,50.3"
		/>
</g>
<g>
	<path fill="none" stroke="#FFFFFF" stroke-width="2" stroke-miterlimit="10" d="M14,110.4l14.6-14.6c1.1-1.1,2.9-1.1,4.1,0
		l16.1,16.1c1.1,1.1,1.1,2.9,0,4.1l-14.6,14.6c-1.1,1.1-2.9,1.1-4.1,0L14,114.4C12.9,113.3,12.9,111.5,14,110.4z"/>
	<path fill="#FFFFFF" d="M28.4,136.3l26.2-26.2c1.1-1.1,2.9-1.1,4.1,0l40.5,40.5c1.1,1.1,1.1,2.9,0,4.1L73,180.9
		c-1.1,1.1-2.9,1.1-4.1,0l-40.5-40.5C27.3,139.2,27.3,137.4,28.4,136.3z"/>
	<line fill="none" stroke="#FFFFFF" stroke-width="2" stroke-miterlimit="10" x1="20.6" y1="111" x2="33.6" y2="123.9"/>
	<line fill="none" stroke="#FFFFFF" stroke-width="2" stroke-miterlimit="10" x1="29.2" y1="102.3" x2="42.2" y2="115.3"/>
</g>
</svg>
