<?xml version="1.0" encoding="utf-8"?>
<!-- Generator: Adobe Illustrator 18.1.0, SVG Export Plug-In . SVG Version: 6.00 Build 0)  -->
<!DOCTYPE svg PUBLIC "-//W3C//DTD SVG 1.1//EN" "http://www.w3.org/Graphics/SVG/1.1/DTD/svg11.dtd">
<svg version="1.1" id="Layer_1" xmlns="http://www.w3.org/2000/svg" xmlns:xlink="http://www.w3.org/1999/xlink" x="0px" y="0px"
	 viewBox="0 0 200 200" enable-background="new 0 0 200 200" xml:space="preserve">
<g>
	<path fill="#FFFFFF" d="M155.5,175.3C155.5,175.3,155.5,175.3,155.5,175.3c-2.2,0-4.4-0.1-6.5-0.2c-2.1-0.1-4.1-0.2-6-0.2h-31.6
		c-2,0-4.1,0.1-6.3,0.1c-2.3,0.1-4.7,0.1-7,0.1c-22.8,0-29.3-8-32.6-15.8c-2.8-6.7-2.5-14.4,0.8-21.1c3.1-6.3,8.4-10.9,14.7-13.1
		c-0.8-5.5,0.6-11.1,4.2-15.5c4-5.1,10.3-8.2,16.7-8.2c1.5,0,2.9,0.2,4.4,0.5c6.1-9,16.8-14.5,28.1-14.5c4.6,0,9,0.9,13.2,2.7
		c14.1,6,22.3,20.2,20.2,34.8c5.4,1.6,10.3,5.2,13.6,9.8c4.4,6.1,5.7,13.9,3.6,21.3c-2.1,7.6-7.4,13.7-14.6,16.8
		C165.3,175,159.7,175.3,155.5,175.3z"/>
</g>
<g>
	<g>
		<g>
			<path fill="none" stroke="#FFFFFF" stroke-width="2" stroke-miterlimit="10" d="M108.7,116.6c0,6.9-20.9,12.6-46.7,12.6
				s-46.7-5.6-46.7-12.6"/>
			<path fill="none" stroke="#FFFFFF" stroke-width="2" stroke-miterlimit="10" d="M108.7,87.9c0,6.9-20.9,12.6-46.7,12.6
				s-46.7-5.6-46.7-12.6"/>
			<path fill="none" stroke="#FFFFFF" stroke-width="2" stroke-miterlimit="10" d="M108.7,59.2c0,6.9-20.9,12.6-46.7,12.6
				s-46.7-5.6-46.7-12.6"/>
			<ellipse fill="none" stroke="#FFFFFF" stroke-width="2" stroke-miterlimit="10" cx="62.1" cy="30.4" rx="46.7" ry="12.6"/>
		</g>
		<line fill="none" stroke="#FFFFFF" stroke-width="2" stroke-miterlimit="10" x1="15.4" y1="30.4" x2="15.4" y2="116.6"/>
	</g>
	<line fill="none" stroke="#FFFFFF" stroke-width="2" stroke-miterlimit="10" x1="108.7" y1="30.4" x2="108.7" y2="116.6"/>
</g>
</svg>
