<?xml version="1.0" encoding="utf-8"?>
<!-- Generator: Adobe Illustrator 18.1.0, SVG Export Plug-In . SVG Version: 6.00 Build 0)  -->
<!DOCTYPE svg PUBLIC "-//W3C//DTD SVG 1.1//EN" "http://www.w3.org/Graphics/SVG/1.1/DTD/svg11.dtd">
<svg version="1.1" id="Layer_1" xmlns="http://www.w3.org/2000/svg" xmlns:xlink="http://www.w3.org/1999/xlink" x="0px" y="0px"
	 viewBox="0 0 200 200" enable-background="new 0 0 200 200" xml:space="preserve">
<g>
	<path fill="#FFFFFF" d="M177.9,62v93.4l-5.9,11.8c-0.7,1.4-2.7,1.4-3.4,0l-5.9-11.8V62c0-1.1,0.9-1.9,1.9-1.9H176
		C177.1,60.1,177.9,60.9,177.9,62z"/>
	<polyline fill="none" stroke="#FFFFFF" stroke-width="2" stroke-miterlimit="10" points="162.7,67.7 155.1,67.7 155.1,86.8 	"/>
</g>
<g>
	<path fill="none" stroke="#FFFFFF" stroke-width="2" stroke-miterlimit="10" d="M34.4,23.6h94c1.4,0,2.5,1.1,2.5,2.5v138.5
		c0,1.4-1.1,2.5-2.5,2.5h-94c-1.4,0-2.5-1.1-2.5-2.5V26C32,24.7,33.1,23.6,34.4,23.6z"/>
	<line fill="none" stroke="#FFFFFF" stroke-width="2" stroke-miterlimit="10" x1="106.2" y1="23.6" x2="106.2" y2="167.1"/>
	<line fill="none" stroke="#FFFFFF" stroke-width="2" stroke-miterlimit="10" x1="41.9" y1="55.7" x2="22.1" y2="55.7"/>
	<line fill="none" stroke="#FFFFFF" stroke-width="2" stroke-miterlimit="10" x1="41.9" y1="35.9" x2="22.1" y2="35.9"/>
	<line fill="none" stroke="#FFFFFF" stroke-width="2" stroke-miterlimit="10" x1="41.9" y1="75.5" x2="22.1" y2="75.5"/>
	<line fill="none" stroke="#FFFFFF" stroke-width="2" stroke-miterlimit="10" x1="41.9" y1="95.3" x2="22.1" y2="95.3"/>
	<line fill="none" stroke="#FFFFFF" stroke-width="2" stroke-miterlimit="10" x1="41.9" y1="115.1" x2="22.1" y2="115.1"/>
	<line fill="none" stroke="#FFFFFF" stroke-width="2" stroke-miterlimit="10" x1="41.9" y1="134.9" x2="22.1" y2="134.9"/>
	<line fill="none" stroke="#FFFFFF" stroke-width="2" stroke-miterlimit="10" x1="41.9" y1="154.7" x2="22.1" y2="154.7"/>
</g>
</svg>
