<?xml version="1.0" encoding="utf-8"?>
<!-- Generator: Adobe Illustrator 18.1.0, SVG Export Plug-In . SVG Version: 6.00 Build 0)  -->
<!DOCTYPE svg PUBLIC "-//W3C//DTD SVG 1.1//EN" "http://www.w3.org/Graphics/SVG/1.1/DTD/svg11.dtd">
<svg version="1.1" id="Layer_1" xmlns="http://www.w3.org/2000/svg" xmlns:xlink="http://www.w3.org/1999/xlink" x="0px" y="0px"
	 viewBox="0 0 520 200" enable-background="new 0 0 520 200" xml:space="preserve">
<g>
	<path fill="#FFFFFF" d="M48.6,72.4v4c0,1-0.8,1.7-1.7,1.7c-1.1,0-1.9-0.8-1.9-1.7v-4c-5.2-0.3-9.4-2.2-12.4-4.9
		c-0.5-0.5-0.8-1.1-0.8-1.8c0-1.2,1-2.5,2.3-2.5c0.5,0,1,0.2,1.4,0.5c2.4,2.1,5.6,3.8,9.5,4.3V53.3c-6.1-1.7-12.5-3.7-12.5-11.1
		c0-6.2,5.2-10.6,12.5-11V27c0-1,0.8-1.7,1.9-1.7c1,0,1.7,0.8,1.7,1.7v4.2c4.2,0.4,7.5,1.7,10.4,4.2c0.5,0.4,0.8,1.1,0.8,1.7
		c0,1.3-1,2.5-2.3,2.5c-0.5,0-1-0.2-1.4-0.5c-2.3-2-4.7-2.9-7.4-3.3v13c6.2,1.7,12.7,4.1,12.7,11.9C61.3,66.1,57.9,71.6,48.6,72.4z
		 M45,35.6c-4.3,0.3-7.3,2.8-7.3,6.3c0,3.4,3.2,4.7,7.3,5.9V35.6z M48.6,54.3v13.6c5.7-0.6,7.6-4,7.6-6.8
		C56.2,57.2,52.8,55.6,48.6,54.3z"/>
</g>
<g>
	<path fill="#FFFFFF" d="M145.5,72.4v4c0,1-0.8,1.7-1.7,1.7c-1.1,0-1.9-0.8-1.9-1.7v-4c-5.2-0.3-9.4-2.2-12.4-4.9
		c-0.5-0.5-0.8-1.1-0.8-1.8c0-1.2,1-2.5,2.3-2.5c0.5,0,1,0.2,1.4,0.5c2.4,2.1,5.6,3.8,9.5,4.3V53.3c-6.1-1.7-12.5-3.7-12.5-11.1
		c0-6.2,5.2-10.6,12.5-11V27c0-1,0.8-1.7,1.9-1.7c1,0,1.7,0.8,1.7,1.7v4.2c4.2,0.4,7.5,1.7,10.4,4.2c0.5,0.4,0.8,1.1,0.8,1.7
		c0,1.3-1,2.5-2.3,2.5c-0.5,0-1-0.2-1.4-0.5c-2.3-2-4.7-2.9-7.4-3.3v13c6.2,1.7,12.7,4.1,12.7,11.9
		C158.2,66.1,154.7,71.6,145.5,72.4z M141.8,35.6c-4.3,0.3-7.3,2.8-7.3,6.3c0,3.4,3.2,4.7,7.3,5.9V35.6z M145.5,54.3v13.6
		c5.7-0.6,7.6-4,7.6-6.8C153.1,57.2,149.7,55.6,145.5,54.3z"/>
</g>
<g>
	<path fill="#FFFFFF" d="M97.1,72.4v4c0,1-0.8,1.7-1.7,1.7c-1.1,0-1.9-0.8-1.9-1.7v-4c-5.2-0.3-9.4-2.2-12.4-4.9
		c-0.5-0.5-0.8-1.1-0.8-1.8c0-1.2,1-2.5,2.3-2.5c0.5,0,1,0.2,1.4,0.5c2.4,2.1,5.6,3.8,9.5,4.3V53.3c-6.1-1.7-12.5-3.7-12.5-11.1
		c0-6.2,5.2-10.6,12.5-11V27c0-1,0.8-1.7,1.9-1.7c1,0,1.7,0.8,1.7,1.7v4.2c4.2,0.4,7.5,1.7,10.4,4.2c0.5,0.4,0.8,1.1,0.8,1.7
		c0,1.3-1,2.5-2.3,2.5c-0.5,0-1-0.2-1.4-0.5c-2.3-2-4.7-2.9-7.4-3.3v13c6.2,1.7,12.7,4.1,12.7,11.9C109.8,66.1,106.3,71.6,97.1,72.4
		z M93.4,35.6c-4.3,0.3-7.3,2.8-7.3,6.3c0,3.4,3.2,4.7,7.3,5.9V35.6z M97.1,54.3v13.6c5.7-0.6,7.6-4,7.6-6.8
		C104.6,57.2,101.3,55.6,97.1,54.3z"/>
</g>
<g>
	<path fill="#FFFFFF" d="M193.9,72.4v4c0,1-0.8,1.7-1.7,1.7c-1.1,0-1.9-0.8-1.9-1.7v-4c-5.2-0.3-9.4-2.2-12.4-4.9
		c-0.5-0.5-0.8-1.1-0.8-1.8c0-1.2,1-2.5,2.3-2.5c0.5,0,1,0.2,1.4,0.5c2.4,2.1,5.6,3.8,9.5,4.3V53.3c-6.1-1.7-12.5-3.7-12.5-11.1
		c0-6.2,5.2-10.6,12.5-11V27c0-1,0.8-1.7,1.9-1.7c1,0,1.7,0.8,1.7,1.7v4.2c4.2,0.4,7.5,1.7,10.4,4.2c0.5,0.4,0.8,1.1,0.8,1.7
		c0,1.3-1,2.5-2.3,2.5c-0.5,0-1-0.2-1.4-0.5c-2.3-2-4.7-2.9-7.4-3.3v13c6.2,1.7,12.7,4.1,12.7,11.9
		C206.6,66.1,203.2,71.6,193.9,72.4z M190.3,35.6c-4.3,0.3-7.3,2.8-7.3,6.3c0,3.4,3.2,4.7,7.3,5.9V35.6z M193.9,54.3v13.6
		c5.7-0.6,7.6-4,7.6-6.8C201.5,57.2,198.1,55.6,193.9,54.3z"/>
</g>
<g>
	<path fill="#FFFFFF" d="M242.4,72.4v4c0,1-0.8,1.7-1.7,1.7c-1.1,0-1.9-0.8-1.9-1.7v-4c-5.2-0.3-9.4-2.2-12.4-4.9
		c-0.5-0.5-0.8-1.1-0.8-1.8c0-1.2,1-2.5,2.3-2.5c0.5,0,1,0.2,1.4,0.5c2.4,2.1,5.6,3.8,9.5,4.3V53.3c-6.1-1.7-12.5-3.7-12.5-11.1
		c0-6.2,5.2-10.6,12.5-11V27c0-1,0.8-1.7,1.9-1.7c1,0,1.7,0.8,1.7,1.7v4.2c4.2,0.4,7.5,1.7,10.4,4.2c0.5,0.4,0.8,1.1,0.8,1.7
		c0,1.3-1,2.5-2.3,2.5c-0.5,0-1-0.2-1.4-0.5c-2.3-2-4.7-2.9-7.4-3.3v13c6.2,1.7,12.7,4.1,12.7,11.9
		C255.1,66.1,251.6,71.6,242.4,72.4z M238.7,35.6c-4.3,0.3-7.3,2.8-7.3,6.3c0,3.4,3.2,4.7,7.3,5.9V35.6z M242.4,54.3v13.6
		c5.7-0.6,7.6-4,7.6-6.8C249.9,57.2,246.6,55.6,242.4,54.3z"/>
</g>
<g>
	<path fill="#FFFFFF" d="M290.8,72.4v4c0,1-0.8,1.7-1.7,1.7c-1.1,0-1.9-0.8-1.9-1.7v-4c-5.2-0.3-9.4-2.2-12.4-4.9
		c-0.5-0.5-0.8-1.1-0.8-1.8c0-1.2,1-2.5,2.3-2.5c0.5,0,1,0.2,1.4,0.5c2.4,2.1,5.6,3.8,9.5,4.3V53.3c-6.1-1.7-12.5-3.7-12.5-11.1
		c0-6.2,5.2-10.6,12.5-11V27c0-1,0.8-1.7,1.9-1.7c1,0,1.7,0.8,1.7,1.7v4.2c4.2,0.4,7.5,1.7,10.4,4.2c0.5,0.4,0.8,1.1,0.8,1.7
		c0,1.3-1,2.5-2.3,2.5c-0.5,0-1-0.2-1.4-0.5c-2.3-2-4.7-2.9-7.4-3.3v13c6.2,1.7,12.7,4.1,12.7,11.9C303.5,66.1,300,71.6,290.8,72.4z
		 M287.1,35.6c-4.3,0.3-7.3,2.8-7.3,6.3c0,3.4,3.2,4.7,7.3,5.9V35.6z M290.8,54.3v13.6c5.7-0.6,7.6-4,7.6-6.8
		C298.4,57.2,295,55.6,290.8,54.3z"/>
</g>
<path fill="#C8493D" d="M236.5,172L236.5,172c-7.2,0-13-5.8-13-13v-46c0-7.1,5.9-13,13-13h0c7.2,0,13,5.8,13,13v46
	C249.5,166.2,243.6,172,236.5,172z"/>
<path fill="#C8493D" d="M285.1,172L285.1,172c-7.2,0-13-5.8-13-13v-46c0-7.1,5.9-13,13-13h0c7.2,0,13,5.8,13,13v46
	C298.1,166.2,292.3,172,285.1,172z"/>
<path fill="#C8493D" d="M333.8,172L333.8,172c-7.2,0-13-5.8-13-13v-46c0-7.1,5.9-13,13-13h0c7.2,0,13,5.8,13,13v46
	C346.8,166.2,341,172,333.8,172z"/>
<path fill="#C8493D" d="M382.5,172L382.5,172c-7.2,0-13-5.8-13-13v-46c0-7.1,5.9-13,13-13h0c7.2,0,13,5.8,13,13v46
	C395.5,166.2,389.7,172,382.5,172z"/>
<path fill="#FFFFFF" d="M431.2,172L431.2,172c-7.2,0-13-5.8-13-13v-46c0-7.1,5.9-13,13-13h0c7.2,0,13,5.8,13,13v46
	C444.2,166.2,438.4,172,431.2,172z"/>
<path fill="#FFFFFF" d="M479.9,172L479.9,172c-7.2,0-13-5.8-13-13v-46c0-7.1,5.9-13,13-13l0,0c7.2,0,13,5.8,13,13v46
	C492.9,166.2,487,172,479.9,172z"/>
<g>
	<path fill="#FFFFFF" d="M339.2,72.4v4c0,1-0.8,1.7-1.7,1.7c-1.1,0-1.9-0.8-1.9-1.7v-4c-5.2-0.3-9.4-2.2-12.4-4.9
		c-0.5-0.5-0.8-1.1-0.8-1.8c0-1.2,1-2.5,2.3-2.5c0.5,0,1,0.2,1.4,0.5c2.4,2.1,5.6,3.8,9.5,4.3V53.3c-6.1-1.7-12.5-3.7-12.5-11.1
		c0-6.2,5.2-10.6,12.5-11V27c0-1,0.8-1.7,1.9-1.7c1,0,1.7,0.8,1.7,1.7v4.2c4.2,0.4,7.5,1.7,10.4,4.2c0.5,0.4,0.8,1.1,0.8,1.7
		c0,1.3-1,2.5-2.3,2.5c-0.5,0-1-0.2-1.4-0.5c-2.3-2-4.7-2.9-7.4-3.3v13c6.2,1.7,12.7,4.1,12.7,11.9C352,66.1,348.5,71.6,339.2,72.4z
		 M335.6,35.6c-4.3,0.3-7.3,2.8-7.3,6.3c0,3.4,3.2,4.7,7.3,5.9V35.6z M339.2,54.3v13.6c5.7-0.6,7.6-4,7.6-6.8
		C346.8,57.2,343.4,55.6,339.2,54.3z"/>
</g>
<g>
	<path fill="#FFFFFF" d="M387.7,72.4v4c0,1-0.8,1.7-1.7,1.7c-1.1,0-1.9-0.8-1.9-1.7v-4c-5.2-0.3-9.4-2.2-12.4-4.9
		c-0.5-0.5-0.8-1.1-0.8-1.8c0-1.2,1-2.5,2.3-2.5c0.5,0,1,0.2,1.4,0.5c2.4,2.1,5.6,3.8,9.5,4.3V53.3c-6.1-1.7-12.5-3.7-12.5-11.1
		c0-6.2,5.2-10.6,12.5-11V27c0-1,0.8-1.7,1.9-1.7c1,0,1.7,0.8,1.7,1.7v4.2c4.2,0.4,7.5,1.7,10.4,4.2c0.5,0.4,0.8,1.1,0.8,1.7
		c0,1.3-1,2.5-2.3,2.5c-0.5,0-1-0.2-1.4-0.5c-2.3-2-4.7-2.9-7.4-3.3v13c6.2,1.7,12.7,4.1,12.7,11.9
		C400.4,66.1,396.9,71.6,387.7,72.4z M384,35.6c-4.3,0.3-7.3,2.8-7.3,6.3c0,3.4,3.2,4.7,7.3,5.9V35.6z M387.7,54.3v13.6
		c5.7-0.6,7.6-4,7.6-6.8C395.2,57.2,391.9,55.6,387.7,54.3z"/>
</g>
<g>
	<path fill="#FFFFFF" d="M436.1,72.4v4c0,1-0.8,1.7-1.7,1.7c-1.1,0-1.9-0.8-1.9-1.7v-4c-5.2-0.3-9.4-2.2-12.4-4.9
		c-0.5-0.5-0.8-1.1-0.8-1.8c0-1.2,1-2.5,2.3-2.5c0.5,0,1,0.2,1.4,0.5c2.4,2.1,5.6,3.8,9.5,4.3V53.3c-6.1-1.7-12.5-3.7-12.5-11.1
		c0-6.2,5.2-10.6,12.5-11V27c0-1,0.8-1.7,1.9-1.7c1,0,1.7,0.8,1.7,1.7v4.2c4.2,0.4,7.5,1.7,10.4,4.2c0.5,0.4,0.8,1.1,0.8,1.7
		c0,1.3-1,2.5-2.3,2.5c-0.5,0-1-0.2-1.4-0.5c-2.3-2-4.7-2.9-7.4-3.3v13c6.2,1.7,12.7,4.1,12.7,11.9
		C448.8,66.1,445.4,71.6,436.1,72.4z M432.5,35.6c-4.3,0.3-7.3,2.8-7.3,6.3c0,3.4,3.2,4.7,7.3,5.9V35.6z M436.1,54.3v13.6
		c5.7-0.6,7.6-4,7.6-6.8C443.7,57.2,440.3,55.6,436.1,54.3z"/>
</g>
<g>
	<path fill="#FFFFFF" d="M484.6,72.4v4c0,1-0.8,1.7-1.7,1.7c-1.1,0-1.9-0.8-1.9-1.7v-4c-5.2-0.3-9.4-2.2-12.4-4.9
		c-0.5-0.5-0.8-1.1-0.8-1.8c0-1.2,1-2.5,2.3-2.5c0.5,0,1,0.2,1.4,0.5c2.4,2.1,5.6,3.8,9.5,4.3V53.3c-6.1-1.7-12.5-3.7-12.5-11.1
		c0-6.2,5.2-10.6,12.5-11V27c0-1,0.8-1.7,1.9-1.7c1,0,1.7,0.8,1.7,1.7v4.2c4.2,0.4,7.5,1.7,10.4,4.2c0.5,0.4,0.8,1.1,0.8,1.7
		c0,1.3-1,2.5-2.3,2.5c-0.5,0-1-0.2-1.4-0.5c-2.3-2-4.7-2.9-7.4-3.3v13c6.2,1.7,12.7,4.1,12.7,11.9
		C497.3,66.1,493.8,71.6,484.6,72.4z M480.9,35.6c-4.3,0.3-7.3,2.8-7.3,6.3c0,3.4,3.2,4.7,7.3,5.9V35.6z M484.6,54.3v13.6
		c5.7-0.6,7.6-4,7.6-6.8C492.1,57.2,488.8,55.6,484.6,54.3z"/>
</g>
<path fill="#C8493D" d="M41.7,172L41.7,172c-7.2,0-13-5.8-13-13v-46c0-7.1,5.9-13,13-13h0c7.2,0,13,5.8,13,13v46
	C54.7,166.2,48.8,172,41.7,172z"/>
<path fill="#C8493D" d="M90.4,172L90.4,172c-7.2,0-13-5.8-13-13v-46c0-7.1,5.9-13,13-13h0c7.2,0,13,5.8,13,13v46
	C103.4,166.2,97.5,172,90.4,172z"/>
<path fill="#C8493D" d="M139.1,172L139.1,172c-7.2,0-13-5.8-13-13v-46c0-7.1,5.9-13,13-13h0c7.2,0,13,5.8,13,13v46
	C152.1,166.2,146.2,172,139.1,172z"/>
<path fill="#C8493D" d="M187.8,172L187.8,172c-7.2,0-13-5.8-13-13v-46c0-7.1,5.9-13,13-13h0c7.2,0,13,5.8,13,13v46
	C200.8,166.2,194.9,172,187.8,172z"/>
</svg>
