<?xml version="1.0" encoding="utf-8"?>
<!-- Generator: Adobe Illustrator 18.1.0, SVG Export Plug-In . SVG Version: 6.00 Build 0)  -->
<!DOCTYPE svg PUBLIC "-//W3C//DTD SVG 1.1//EN" "http://www.w3.org/Graphics/SVG/1.1/DTD/svg11.dtd">
<svg version="1.1" id="Layer_1" xmlns="http://www.w3.org/2000/svg" xmlns:xlink="http://www.w3.org/1999/xlink" x="0px" y="0px"
	 viewBox="0 0 540 360" enable-background="new 0 0 540 360" xml:space="preserve">
<rect x="-223" y="-116.3" fill="#C8493D" width="985.6" height="595.2"/>
<g>
	<circle fill="#FFFFFF" cx="65.1" cy="228.8" r="13"/>
	<line fill="none" stroke="#FFFFFF" stroke-width="4" stroke-miterlimit="10" x1="65.1" y1="228.8" x2="101.7" y2="192.2"/>
	<circle fill="#FFFFFF" cx="109.1" cy="185.4" r="20.8"/>
</g>
<g>
	<circle fill="#FFFFFF" cx="254.4" cy="177.5" r="13"/>
	<line fill="none" stroke="#FFFFFF" stroke-width="4" stroke-miterlimit="10" x1="261" y1="182.6" x2="302.5" y2="213.6"/>
	<circle fill="#FFFFFF" cx="307.9" cy="215.8" r="20.8"/>
	<circle fill="#FFFFFF" cx="248.2" cy="226.6" r="13"/>
	<line fill="none" stroke="#FFFFFF" stroke-width="4" stroke-miterlimit="10" x1="248.2" y1="228.8" x2="253.1" y2="177.8"/>
	<line fill="none" stroke="#FFFFFF" stroke-width="4" stroke-miterlimit="10" x1="247.4" y1="226.3" x2="297.9" y2="217.5"/>
</g>
<circle fill="#A53A35" cx="405.4" cy="111.6" r="13"/>
<circle fill="#FFFFFF" cx="484.6" cy="74.2" r="7.6"/>
<circle fill="#FFFFFF" cx="279.5" cy="98.3" r="13"/>
<circle fill="#FFFFFF" cx="182.4" cy="81.2" r="20.8"/>
<line fill="none" stroke="#FFFFFF" stroke-width="4" stroke-miterlimit="10" x1="182.4" y1="81.5" x2="279.5" y2="98.6"/>
<circle fill="#FFFFFF" cx="101.7" cy="104.9" r="10.1"/>
<circle fill="#A53A35" cx="165.4" cy="250.2" r="9"/>
<circle fill="#FFFFFF" cx="477" cy="175.8" r="13"/>
<circle fill="#FFFFFF" cx="484.6" cy="270.8" r="19.4"/>
<circle fill="#FFFFFF" cx="409.4" cy="226.6" r="13"/>
<line fill="none" stroke="#FFFFFF" stroke-width="4" stroke-miterlimit="10" x1="477" y1="175.8" x2="409.4" y2="226.6"/>
<circle fill="#FFFFFF" cx="471.6" cy="221.8" r="7.6"/>
<line fill="none" stroke="#FFFFFF" stroke-width="4" stroke-miterlimit="10" x1="409.4" y1="226.6" x2="484.6" y2="270.8"/>
<line fill="none" stroke="#FFFFFF" stroke-width="4" stroke-miterlimit="10" x1="477" y1="175.8" x2="471.6" y2="221.8"/>
<line fill="none" stroke="#FFFFFF" stroke-width="4" stroke-miterlimit="10" x1="484.6" y1="270.8" x2="471.6" y2="221.8"/>
<circle fill="#FFFFFF" cx="318.2" cy="298.2" r="15.9"/>
<circle fill="#A53A35" cx="52.3" cy="50.9" r="15.9"/>
<circle fill="#FFFFFF" cx="78.1" cy="307.1" r="9"/>
</svg>
