<?xml version="1.0" encoding="utf-8"?>
<!-- Generator: Adobe Illustrator 18.1.0, SVG Export Plug-In . SVG Version: 6.00 Build 0)  -->
<!DOCTYPE svg PUBLIC "-//W3C//DTD SVG 1.1//EN" "http://www.w3.org/Graphics/SVG/1.1/DTD/svg11.dtd">
<svg version="1.1" id="Layer_1" xmlns="http://www.w3.org/2000/svg" xmlns:xlink="http://www.w3.org/1999/xlink" x="0px" y="0px"
	 viewBox="0 0 236 148" enable-background="new 0 0 236 148" xml:space="preserve">
<g>
	<g>
		<path fill="#FFFFFF" d="M152.7,123.2C152.7,123.2,152.7,123.2,152.7,123.2c-2.6,0-5.3-0.1-7.8-0.2c-2.5-0.1-4.9-0.2-7.2-0.2H99.8
			c-2.4,0-4.9,0.1-7.6,0.1c-2.7,0.1-5.6,0.1-8.4,0.1c-27.4,0-35.1-9.6-39.1-19c-3.4-8-3-17.2,1-25.3c3.7-7.5,10-13.1,17.6-15.7
			c-1-6.6,0.8-13.3,5-18.6c4.8-6.1,12.3-9.8,20.1-9.8c1.8,0,3.5,0.2,5.3,0.6C101,24.6,113.8,18,127.3,18c5.5,0,10.8,1.1,15.8,3.2
			c16.9,7.2,26.7,24.3,24.2,41.7c6.5,2,12.3,6.2,16.3,11.7c5.2,7.3,6.8,16.6,4.4,25.5c-2.5,9.1-8.9,16.5-17.5,20.2
			C164.4,122.9,157.8,123.2,152.7,123.2z"/>
	</g>
	<g id="XMLID_1_">
		<path fill="#C8493D" d="M116.9,48.1c16.3,0,29.5,13.2,29.5,29.5c0,15.8-12.4,28.7-28,29.4v-7.4l12.9-12.9c1.6,0.8,3.5,0.5,4.8-0.8
			c1.6-1.6,1.6-4.3,0-5.9c-1.6-1.6-4.3-1.6-5.9,0c-1.3,1.3-1.6,3.2-0.8,4.8l-11,11V82.2l7.5-7.5c1.6,0.8,3.5,0.5,4.8-0.8
			c1.6-1.6,1.6-4.3,0-5.9c-1.6-1.6-4.3-1.6-5.9,0c-1.3,1.3-1.6,3.2-0.8,4.8l-5.6,5.6v-16c1.6-0.6,2.8-2.1,2.8-3.9
			c0-2.3-1.9-4.2-4.2-4.2c-2.3,0-4.2,1.9-4.2,4.2c0,1.8,1.2,3.4,2.8,3.9v16l-5.6-5.6c0.8-1.6,0.5-3.5-0.8-4.8
			c-1.6-1.6-4.3-1.6-5.9,0c-1.6,1.6-1.6,4.3,0,5.9c1.3,1.3,3.2,1.6,4.8,0.8l7.5,7.5v13.7l-11-11c0.8-1.6,0.5-3.5-0.8-4.8
			c-1.6-1.6-4.3-1.6-5.9,0c-1.6,1.6-1.6,4.3,0,5.9c1.3,1.3,3.2,1.6,4.8,0.8l12.9,12.9v7.4c-15.7-0.6-28.2-13.6-28.2-29.5
			C87.5,61.3,100.7,48.1,116.9,48.1z"/>
	</g>
</g>
</svg>
